<svg xmlns="http://www.w3.org/2000/svg" width="26" height="26" viewBox="0 0 26 26">
  <g id="IG" transform="translate(-1510 -4100)">
    <g id="Ellipse_5" data-name="Ellipse 5" transform="translate(1510 4100)" fill="none" stroke="#44d62c" stroke-width="1">
      <circle cx="13" cy="13" r="13" stroke="none"/>
      <circle cx="13" cy="13" r="12.5" fill="none"/>
    </g>
    <path id="Icon_awesome-instagram" data-name="Icon awesome-instagram" d="M6.379,5.347A3.272,3.272,0,1,0,9.651,8.619,3.267,3.267,0,0,0,6.379,5.347Zm0,5.4A2.127,2.127,0,1,1,8.507,8.619a2.131,2.131,0,0,1-2.127,2.127Zm4.169-5.534a.763.763,0,1,1-.763-.763A.761.761,0,0,1,10.548,5.213Zm2.167.775a3.777,3.777,0,0,0-1.031-2.674A3.8,3.8,0,0,0,9.011,2.283c-1.054-.06-4.212-.06-5.266,0A3.8,3.8,0,0,0,1.071,3.311,3.789,3.789,0,0,0,.04,5.985c-.06,1.054-.06,4.212,0,5.266a3.777,3.777,0,0,0,1.031,2.674,3.807,3.807,0,0,0,2.674,1.031c1.054.06,4.212.06,5.266,0a3.777,3.777,0,0,0,2.674-1.031,3.8,3.8,0,0,0,1.031-2.674c.06-1.054.06-4.209,0-5.263Zm-1.361,6.394a2.154,2.154,0,0,1-1.213,1.213,14.066,14.066,0,0,1-3.762.256,14.176,14.176,0,0,1-3.762-.256A2.154,2.154,0,0,1,1.4,12.381a14.066,14.066,0,0,1-.256-3.762A14.176,14.176,0,0,1,1.4,4.857,2.154,2.154,0,0,1,2.617,3.644a14.066,14.066,0,0,1,3.762-.256,14.176,14.176,0,0,1,3.762.256,2.154,2.154,0,0,1,1.213,1.213,14.066,14.066,0,0,1,.256,3.762A14.058,14.058,0,0,1,11.354,12.381Z" transform="translate(1516.631 4104.389)" fill="#44d62c"/>
  </g>
</svg>
