<svg xmlns="http://www.w3.org/2000/svg" width="26" height="26" viewBox="0 0 26 26">
  <g id="Twitter" transform="translate(-1550 -4100)">
    <g id="Ellipse_6" data-name="Ellipse 6" transform="translate(1550 4100)" fill="none" stroke="#44d62c" stroke-width="1">
      <circle cx="13" cy="13" r="13" stroke="none"/>
      <circle cx="13" cy="13" r="12.5" fill="none"/>
    </g>
    <path id="Icon_awesome-twitter" data-name="Icon awesome-twitter" d="M11.868,6.058c.008.117.008.235.008.353a7.661,7.661,0,0,1-7.713,7.713A7.661,7.661,0,0,1,0,12.907a5.608,5.608,0,0,0,.655.034A5.429,5.429,0,0,0,4.02,11.782,2.716,2.716,0,0,1,1.486,9.9,3.419,3.419,0,0,0,2,9.944a2.867,2.867,0,0,0,.713-.092A2.711,2.711,0,0,1,.537,7.191V7.158A2.73,2.73,0,0,0,1.763,7.5,2.715,2.715,0,0,1,.923,3.876a7.706,7.706,0,0,0,5.59,2.837,3.06,3.06,0,0,1-.067-.621,2.714,2.714,0,0,1,4.692-1.855,5.337,5.337,0,0,0,1.721-.655,2.7,2.7,0,0,1-1.192,1.494,5.435,5.435,0,0,0,1.561-.42,5.828,5.828,0,0,1-1.36,1.4Z" transform="translate(1556.697 4104.562)" fill="#44d62c"/>
  </g>
</svg>
